<?xml version="1.0" encoding="UTF-8"?>
<svg xmlns="http://www.w3.org/2000/svg" viewBox="0 0 284.18 283.46">
  <defs>
    <style>
      .cls-1 {
        fill: url(#linear-gradient);
        opacity: .5;
      }

      .cls-2, .cls-3 {
        fill: #fff;
      }

      .cls-4 {
        fill: #0b385f;
      }

      .cls-3 {
        stroke: url(#Glass_Swatch);
        stroke-miterlimit: 10;
        stroke-width: 3px;
      }
    </style>
    <linearGradient id="linear-gradient" x1="142.45" y1="0" x2="142.45" y2="283.46" gradientUnits="userSpaceOnUse">
      <stop offset="0" stop-color="#0b385f" stop-opacity="0"/>
      <stop offset=".37" stop-color="#0b365c" stop-opacity=".06"/>
      <stop offset=".61" stop-color="#0b3153" stop-opacity=".24"/>
      <stop offset=".81" stop-color="#0d2945" stop-opacity=".55"/>
      <stop offset=".99" stop-color="#0e1e30" stop-opacity=".98"/>
      <stop offset="1" stop-color="#0f1e30"/>
    </linearGradient>
    <linearGradient id="Glass_Swatch" x1="65.95" y1="141.73" x2="218.95" y2="141.73" gradientUnits="userSpaceOnUse">
      <stop offset="0" stop-color="#fff" stop-opacity=".05"/>
      <stop offset=".36" stop-color="#fff"/>
      <stop offset=".67" stop-color="#fff"/>
      <stop offset="1" stop-color="#fff" stop-opacity=".05"/>
    </linearGradient>
  </defs>
  <g id="Layer_11">
    <rect class="cls-4" x=".72" y="0" width="283.46" height="283.46" rx="141.73" ry="141.73"/>
    <rect class="cls-1" x=".72" y="0" width="283.46" height="283.46" rx="141.73" ry="141.73"/>
  </g>
  <g id="Layer_10">
    <path class="cls-3" d="M156.44,80.72v-6.02h16.94c4.14,0,7.51-3.37,7.51-7.51v-5.6c0-4.14-3.37-7.51-7.51-7.51h-61.85c-4.14,0-7.51,3.37-7.51,7.51v5.6c0,4.14,3.37,7.51,7.51,7.51h16.94v6.02c-34.69,6.57-61.01,37.1-61.01,73.67,0,41.35,33.64,75,75,75s75-33.65,75-75c0-36.57-26.32-67.1-61.01-73.67Zm-13.99,133.67c-33.08,0-60-26.92-60-60s26.92-60,60-60,60,26.92,60,60-26.92,60-60,60Z"/>
    <path class="cls-2" d="M169.55,120.18h0c-3.06-3.09-8.05-3.12-11.14-.06l-15.95,15.77-15.99-15.79c-3.1-3.06-8.08-3.02-11.14,.07h0c-3.06,3.1-3.02,8.08,.07,11.14l18.65,18.41h-6.21c-3.11,0-5.63,2.52-5.63,5.63h0c0,3.11,2.52,5.63,5.63,5.63h6.75s0,4.51,0,4.51h-6.75c-3.11,0-5.63,2.52-5.63,5.63h0c0,3.11,2.52,5.63,5.63,5.63h6.75s0,10.65,0,10.65c0,4.35,3.53,7.88,7.88,7.88h0c4.35,0,7.88-3.53,7.88-7.88v-10.65h6.75c3.11,0,5.63-2.52,5.63-5.63h0c0-3.11-2.52-5.63-5.63-5.63h-6.75s0-4.51,0-4.51h6.75c3.11,0,5.63-2.52,5.63-5.63h0c0-3.11-2.52-5.63-5.63-5.63h-6.22s18.61-18.41,18.61-18.41c3.09-3.06,3.12-8.04,.06-11.14Z"/>
  </g>
</svg>